<?xml version="1.0" encoding="UTF-8"?>
<svg id="Capa_1" xmlns="http://www.w3.org/2000/svg" xmlns:xlink="http://www.w3.org/1999/xlink" version="1.1" viewBox="0 0 1080 1080">
  <!-- Generator: Adobe Illustrator 30.3.0, SVG Export Plug-In . SVG Version: 2.1.3 Build 182)  -->
  <defs>
    <style>
      .st0 {
        filter: url(#drop-shadow-1);
      }

      .st1 {
        fill: #74301b;
      }

      .st2 {
        fill: #fff;
      }
    </style>
    <filter id="drop-shadow-1" x="50.6" y="50.6" width="978.8" height="978.8" filterUnits="userSpaceOnUse">
      <feOffset dx="33.13" dy="33.13"/>
      <feGaussianBlur result="blur" stdDeviation="33.13"/>
      <feFlood flood-color="#000" flood-opacity=".45"/>
      <feComposite in2="blur" operator="in"/>
      <feComposite in="SourceGraphic"/>
    </filter>
  </defs>
  <g class="st0">
    <circle class="st2" cx="540" cy="540" r="489.4"/>
    <path class="st1" d="M349.09,753.28c.11,8.01,1.58,21.26-8.51,23.5-38.85-1.33-80.3,2.86-118.85.39-18.31-1.17-11.91-9.16-15.73-23.73l-17.06-1.56-5.18-81.18c1.39-48.79-2.86-98.84,3.23-147.27,1.78-14.16,1.97-28.14,14.25-36.37,12.45-8.34,28.46-14.87,42.13-21.16-1.15-2.63-4.89-2.67-7.5-5.12-6.57-6.17-7.55-32.38-2.14-38.01,6.14-6.39,39.81-1.17,49.62-3.24,10.88-19.42,19.14-44.73,31.76-62.78,35.15-50.31,147.15-53.26,203.04-54.54,66.3-1.51,204.52-3.04,247.59,56.02,13.03,17.87,20.82,41.38,30.27,61.29,9.56,2.02,45.09-3.26,50.51,3.84,4.61,6.04,3.52,28.44-.92,35.07-2.24,3.35-6.3,4.14-8.14,7.47,10.74,5.71,43.03,17.09,47.96,27.25,4.59,9.46,7.6,37.97,8.61,49.46,4.14,47.14,2.06,94.39.03,141.45l-2.99,69.23h-17.86c-1.66,8.45,1.16,22.14-9.79,23.72-38.81-2.49-82.34,3.63-120.58.16-14.65-1.33-12.58-11.98-12.58-23.89h-381.15ZM763,462.95c-12.16-26.86-24.57-63.06-48.42-81.86-27.61-21.76-95.83-28.91-131.01-31.28-51.56-3.47-178.01-.54-218.82,31.29-23.64,18.44-35.6,55.69-48.42,81.85h446.67ZM355.05,556.73c-3.24-7.57-12.48-12.82-19.47-16.99-30.37-18.06-69.03-24.87-104.11-24.69-.63,11.54-4.13,33.5,1.73,43.69,1.97,3.43,7.28,3.72,10.87,4.02,26.02,2.17,64.57-.19,90.87-3.04,6.66-.72,13.46-2.12,20.11-2.99ZM847.66,516.77c-2.29-3.76-27.8-.69-33.08,0-22.05,2.85-48.73,10.28-67.98,21.35-5.84,3.36-21.22,10.93-15.02,19.27,3.98.97,8.76,1.87,12.83,2.34,13.09,1.52,29.89,2.56,43.1,3.05,10,.37,45.75,1.63,53-.72,6.23-2.01,6.28-10.93,7.17-16.66,1.49-9.65,1.61-19.04-.02-28.62ZM706.18,681.57c3.6-12.81,16.02-24.74,2.47-35.48-25.34-20.1-117.05-34.22-150.39-35.72-49.52-2.23-137.11,10.85-181.91,32.46-21.75,10.49-9.12,23.11-2.46,39.06l332.29-.32Z"/>
  </g>
</svg>