<?xml version="1.0" encoding="UTF-8"?>
<svg id="Capa_1" xmlns="http://www.w3.org/2000/svg" version="1.1" viewBox="0 0 1080 1080">
  <!-- Generator: Adobe Illustrator 30.3.0, SVG Export Plug-In . SVG Version: 2.1.3 Build 182)  -->
  <defs>
    <style>
      .st0 {
        fill: #123e35;
      }

      .st1 {
        fill: #fff;
      }
    </style>
  </defs>
  <ellipse class="st1" cx="542.43" cy="629.92" rx="389.07" ry="374.45"/>
  <path class="st0" d="M429.11,668.64l2.1-69.27c.35-5.46-1.98-10.49-2.18-15.86-2.23-59.48-7.06-116.24-27.94-172.56-25.49-68.78-72.64-130.26-84.28-203.45-40.67,14.83-71.32,49.47-85.68,89.73-5.01,14.03-9.89,51.99-14.81,59.38-8.69,13.06-28.68,6.09-29.1-9.37-.79-28.76,18.87-79.12,34.92-103.1,17.94-26.81,40.12-43.16,66.62-60.67-40.5-13.19-70.88,3.49-89.86,39.43-7.42,14.05-11.27,47.79-30.5,43.98-21.67-4.3-10.28-30-4.88-43.27,12.14-29.85,33.07-58.23,63.73-70.6l21.4-7.65c-33.04-5.41-63.79-.6-95.11,9.96-12.44-2.81-19.41-16.24-10.86-26.75,3.66-4.51,15.72-8.45,21.75-10.31,42.26-13.06,86.12-7.87,126.33,9.02-12.65-15.87-31.79-28.75-51.72-33.47-12.32-2.91-36.89-.64-35.9-19.34,1.16-21.98,26.85-15.26,41.16-11.99,17.84,4.08,38.35,14.08,52.5,25.69,4.81,3.94,26.97,29.11,29.03,29.12,8.82-21.49,46.53-58.44,70.21-58.38,12.73.03,18.34,12.48,13.5,23.77-3.41,7.96-13.28,8.14-19.9,12.17-16.51,10.03-30.84,23.47-36.71,42.47,39.21-30.96,90.88-22.98,132.35-1.04,8.31,4.39,36.41,21.51,38.04,30.19,2.08,11.07-5.06,21.02-16.72,20.4-5.01-.27-36.55-22.78-46.71-27.2-28.85-12.55-63.58-17.7-88.92,4.74,8.33,3.88,17.51,3.31,26.47,5.59,30.78,7.81,57.77,28.47,77.71,52.61,10.41,12.6,55.15,74.51,16.79,76.54-14.45.76-16.85-17.33-22.41-26.81-26.71-45.51-63.14-82.19-120.63-72.83.18,15.87,5.14,31.85,10.53,46.6,17.75,48.6,49.39,96.7,68.6,145.93,33.76,86.5,37.56,184.76,33.13,276.63l23.87-.22c24.19-77.63,62.37-150.36,117.46-210.34,27.12-29.53,59.77-56.36,86.27-86.16,5.87-6.6,37.63-45.42,32.92-52-43.68-23.69-92.62-7.24-128.2,22.87-11.48,9.72-25.21,34.3-41.92,23.91-20.7-12.86,7.75-37.32,18.95-46.88,39.12-33.39,92.37-53.05,143.29-38.17-22.42-38.81-63.1-38.58-102.62-31.43-13.95,2.52-42.51,17.43-45.39-6.19-1.87-15.3,12.14-17.93,23.72-21.5,53.99-16.65,114.95-11.26,150.34,37.08-1.34-16.84-7.68-33.79-18.07-47.07-7.09-9.05-33.7-27.14-13.12-39.27,20.84-12.29,47.55,30.02,54.23,46.28,4.36,10.63,5.11,21.95,10.06,32,29.48-22.86,70.55-33.29,107.37-25.12,10.65,2.36,22.85,5.98,21.53,19.67-2.11,21.93-28.11,10.5-40.7,9.54-13.34-1.02-27.51,1.51-40.09,5.95l-19.02,10.02c40.09-4.58,81.95,5.28,115.73,27.64,10.86,7.19,31.95,21.68,19.53,36.47-12.91,15.37-30.12-5.53-41.69-12.3-17.29-10.11-39.35-19.04-59.47-19.69l14.98,10.05c23.78,19.6,36.82,52.85,39.12,83.18,1.09,14.34,4.72,44.39-15.05,45.22-23.55,1-15.73-28.4-17.03-43.21-3.74-42.57-28.24-76.23-74.15-73.19,40.15,41.31,54.15,94.46,50.1,151.33-.82,11.49-3.6,42.6-17.09,45.13-30.46,5.69-16.04-32.53-14.99-47.13,3.66-50.88-8.8-103.59-51.06-135.31-25.13,47.24-68.2,80.06-104.33,118.27-17.97,19-37.21,38.53-52.76,59.51-33.79,45.6-55.85,98.6-76.53,151.03h72.18c-16.02-93.59,102.25-152.77,166.46-81.25,7.27,8.09,24.01,35.99,24.01,46.16v35.09h110.27c4.35-36.91,2.85-76.09-4.64-112.65-2.2-10.76-12.9-40.25-10.54-47.83,3.72-11.96,21.94-14.01,29.22-2.94,6.95,10.57,16.01,58.05,17.78,72.45,35.01,284.55-230.99,509.18-506.02,425.83-231.24-70.08-344.9-336.32-233.88-552.74,5.21-10.16,25.18-45.79,32.54-51.67,12.93-10.34,30.37,1.55,25.02,19.03-2.4,7.84-20.07,30.63-25.48,40.66-33.79,62.61-47.55,133.88-41.76,204.84l3.01,5.01h253.62ZM872.2,748.83H192.53l13.37,32.16,654.48-1.32,11.82-30.84ZM832.1,829.03H232.63l24.1,31.03,544.42,1.17c14.27-1.39,22.18-22.19,30.95-32.2ZM757.92,909.23h-451.11l45.6,31.59,356.48.58,15.99-8.07,33.04-24.1Z"/>
</svg>