<?xml version="1.0" encoding="UTF-8"?>
<svg id="Capa_1" xmlns="http://www.w3.org/2000/svg" xmlns:xlink="http://www.w3.org/1999/xlink" version="1.1" viewBox="0 0 1080 1080">
  <!-- Generator: Adobe Illustrator 30.3.0, SVG Export Plug-In . SVG Version: 2.1.3 Build 182)  -->
  <defs>
    <style>
      .st0 {
        filter: url(#drop-shadow-1);
      }

      .st1 {
        fill: #fff;
      }

      .st2 {
        fill: #ec6963;
      }
    </style>
    <filter id="drop-shadow-1" x="33.08" y="33.08" width="1013.84" height="1013.84" filterUnits="userSpaceOnUse">
      <feOffset dx="70.34" dy="70.34"/>
      <feGaussianBlur result="blur" stdDeviation="21.1"/>
      <feFlood flood-color="#000" flood-opacity=".45"/>
      <feComposite in2="blur" operator="in"/>
      <feComposite in="SourceGraphic"/>
    </filter>
  </defs>
  <g class="st0">
    <circle class="st2" cx="540" cy="540" r="506.92"/>
    <g>
      <path class="st1" d="M273.28,406.07l48.56,222.59,46.99-219.53,75.06-3.25c18.33,72.06,32.13,144.86,45.81,218.03.96,5.12-2.06,5.41,6.15,4.73l43.9-222.58h78.37l-72.24,300.81-96.73-.18-42.63-200.35-42.74,200.26-95.27-2.65-73.59-297.89h78.37Z"/>
      <path class="st1" d="M872.05,694.49c-93.12,34.96-201.02,18.31-221.77-93.29-29.2-157.02,93.67-242.52,234.45-177.66l-22.27,60.78c-29.7-7.29-52.94-20.75-85.29-14.82-54.45,9.99-58.08,119.16-30.5,154.44,27.66,35.36,90.96,18.53,125.38,1.58v68.97Z"/>
    </g>
  </g>
</svg>