<?xml version="1.0" encoding="UTF-8" standalone="no"?>
<!-- Generator: Adobe Illustrator 16.0.3, SVG Export Plug-In . SVG Version: 6.00 Build 0)  -->

<svg
   version="1.1"
   id="Capa_1"
   x="0px"
   y="0px"
   width="2622.4939"
   height="560.62152"
   viewBox="0 0 2622.4938 560.62151"
   enable-background="new 0 0 595.28 841.89"
   xml:space="preserve"
   sodipodi:docname="Logo de la FONATUR.svg"
   inkscape:version="1.1 (c68e22c387, 2021-05-23)"
   xmlns:inkscape="http://www.inkscape.org/namespaces/inkscape"
   xmlns:sodipodi="http://sodipodi.sourceforge.net/DTD/sodipodi-0.dtd"
   xmlns:xlink="http://www.w3.org/1999/xlink"
   xmlns="http://www.w3.org/2000/svg"
   xmlns:svg="http://www.w3.org/2000/svg"><defs
   id="defs91"><linearGradient
   inkscape:collect="always"
   id="linearGradient15192"><stop
     style="stop-color:#dcc6a7;stop-opacity:1"
     offset="0"
     id="stop15188" /><stop
     style="stop-color:#bf9c6f;stop-opacity:1"
     offset="1"
     id="stop15190" /></linearGradient><linearGradient
   inkscape:collect="always"
   xlink:href="#linearGradient15192"
   id="linearGradient52816"
   x1="1632.5978"
   y1="519.65057"
   x2="2215.304"
   y2="662.52307"
   gradientUnits="userSpaceOnUse"
   gradientTransform="matrix(0.17713505,0,0,0.17713505,-15.520301,105.09045)" /><linearGradient
   inkscape:collect="always"
   xlink:href="#linearGradient15192"
   id="linearGradient52863"
   x1="2526.5703"
   y1="733.35217"
   x2="2455.4446"
   y2="1291.3522"
   gradientUnits="userSpaceOnUse"
   gradientTransform="matrix(0.17713505,0,0,0.17713505,-15.520301,105.09045)" /><linearGradient
   inkscape:collect="always"
   xlink:href="#linearGradient15192"
   id="linearGradient56748"
   x1="2510.4321"
   y1="1524.0061"
   x2="1973.677"
   y2="1740.0061"
   gradientUnits="userSpaceOnUse"
   gradientTransform="matrix(0.17713505,0,0,0.17713505,-15.520301,105.09045)" /><linearGradient
   inkscape:collect="always"
   xlink:href="#linearGradient15192"
   id="linearGradient56756"
   x1="1636.0562"
   y1="1877.2441"
   x2="1402.2812"
   y2="1415.2441"
   gradientUnits="userSpaceOnUse"
   gradientTransform="matrix(0.17713505,0,0,0.17713505,-15.520301,105.09045)" /><linearGradient
   inkscape:collect="always"
   xlink:href="#linearGradient15192"
   id="linearGradient56764"
   x1="1167.4727"
   y1="1085.097"
   x2="1539.2894"
   y2="761.09705"
   gradientUnits="userSpaceOnUse"
   gradientTransform="matrix(0.17713505,0,0,0.17713505,-15.520301,105.09045)" />
	

		
		
		
		
		
		
		
		
		
		
		
		
		
		
		
		
		
		
		
		
		
		
		
		
		
		
		
		
		
		
		
		
		
		
		
		
		
		
		
		
		
	</defs><sodipodi:namedview
   id="namedview89"
   pagecolor="#ffffff"
   bordercolor="#666666"
   borderopacity="1.0"
   inkscape:pageshadow="2"
   inkscape:pageopacity="0.0"
   inkscape:pagecheckerboard="0"
   showgrid="false"
   showguides="false"
   fit-margin-top="0"
   fit-margin-left="0"
   fit-margin-right="0"
   fit-margin-bottom="0"
   height="560.62152px"
   inkscape:zoom="0.35355339"
   inkscape:cx="1260.0643"
   inkscape:cy="4.2426407"
   inkscape:window-width="1920"
   inkscape:window-height="1017"
   inkscape:window-x="1912"
   inkscape:window-y="-8"
   inkscape:window-maximized="1"
   inkscape:current-layer="Capa_1" />

<g
   id="g57804"
   transform="matrix(2.449558,0,0,2.449558,630.12101,-520.18155)"><path
     fill-rule="evenodd"
     clip-rule="evenodd"
     fill="#235b4e"
     d="m 303.91769,344.57506 c 0.396,-17.27 0.249,-34.327 -1.662,-51.348 -0.605,-5.399 -3.158,-8.466 -8.139,-9.968 -2.069,-0.624 -4.044,-1.602 -6.138,-2.093 -2.41,-0.565 -2.731,-1.956 -2.312,-4.054 0.383,-1.919 0.762,-3.372 3.342,-3.351 13.493,0.11 26.987,0.097 40.481,0.017 2.559,-0.015 2.835,1.467 3.267,3.411 0.478,2.145 0.255,3.58 -2.123,4.083 -0.158,0.034 -0.298,0.185 -0.454,0.199 -10.381,1.009 -11.237,8.285 -11.589,16.609 -1.064,25.134 -1.462,50.273 -1.237,75.421 0.037,4.149 -0.846,5.775 -5.28,6.115 -13.722,1.051 -13.64,1.203 -21.332,-10.244 -13.846,-20.605 -29.772,-39.601 -45.652,-58.627 -0.302,-0.36 -0.748,-0.6 -1.75,-1.382 0,6.062 -0.139,11.592 0.029,17.112 0.356,11.803 0.613,23.604 1.932,35.373 0.514,4.589 2.635,6.9 6.652,8.157 2.858,0.895 5.688,1.893 8.576,2.676 2.154,0.584 3.639,1.288 3.025,4.034 -0.502,2.246 -1.266,3.484 -3.889,3.458 -13.658,-0.136 -27.318,-0.167 -40.978,-0.097 -2.465,0.013 -3.618,-0.746 -4.02,-3.222 -0.375,-2.312 -0.198,-3.96 2.525,-4.281 9.749,-1.148 11.418,-7.464 11.403,-16.058 -0.031,-19.651 0.328,-39.3 -0.119,-58.957 -0.177,-7.729 -3.039,-13.018 -10.429,-15.551 -2.653,-0.91 -4.155,-2.031 -3.364,-5.386 0.808,-3.42 3.078,-2.832 5.331,-2.886 8.156,-0.191 16.317,-0.276 24.466,-0.634 3.005,-0.132 4.664,0.814 6.35,3.46 15.492,24.304 34.37,45.998 53.088,68.014 z"
     id="path4" /><path
     id="path6"
     d="m 761.22991,272.85322 c -7.547,0.04 -15.12728,0.73412 -22.67578,0.95312 -9.827,0 -19.65347,-0.057 -29.48047,0.043 -2.237,0.022 -4.79247,-0.98283 -5.73047,2.95117 -0.912,3.826 1.44372,4.35336 3.63672,5.06836 7.248,2.36 9.88759,7.56211 10.18359,14.78711 0.844,20.657 0.50049,41.30094 0.14649,61.96094 -0.134,7.746 -2.27957,12.50954 -10.47657,13.56055 -2.106,0.27099 -4.23671,1.00779 -3.51171,4.59179 0.69,3.415 2.5274,3.27844 4.9414,3.27344 14.164,-0.032 28.32819,-0.0641 42.49219,0.004 2.579,0.012 4.32794,-0.20182 4.96094,-3.38282 0.618,-3.104 -1.07632,-3.64486 -3.19532,-4.50586 -4.882,-1.984 -9.30736,-4.4 -10.06835,-10.5 -0.95201,-7.628 -0.97127,-15.2814 -1.07227,-22.9414 -0.029,-2.189 0.79945,-2.89017 2.93945,-2.82617 4.329,0.131 8.67314,0.20732 12.99414,-0.0137 2.916,-0.148 4.42119,0.94578 5.74219,3.55079 6.243,12.32099 12.34202,24.70717 17.66602,37.45117 1.232,2.949 2.80403,3.94448 5.95703,3.77148 7.149,-0.391 14.31947,-0.46153 21.48047,-0.51953 2.537,-0.02 4.27295,-0.23719 5.00195,-3.36719 0.791,-3.39 -0.88886,-4.562 -3.38086,-5.5 -4.07,-1.532 -6.78533,-4.35825 -9.11133,-8.03125 -6.24,-9.851 -11.74028,-20.11028 -17.48828,-30.23828 -2.025,-3.567 -1.69733,-5.41992 2.13867,-7.16992 2.668,-1.217 5.00188,-3.27559 7.29688,-5.18359 8.406,-6.984 11.82295,-15.96036 9.75195,-26.69336 -1.976,-10.24 -9.47416,-15.16296 -18.66016,-18.12696 -7.4165,-2.393 -14.93151,-3.00679 -22.47851,-2.96679 z m -4.28125,9.89843 c 3.44837,-0.0275 6.89778,0.32754 10.36328,1.26953 4.608,1.253 7.53025,4.03536 8.90625,8.44336 2.742,8.779 2.29038,17.35052 -2.26562,25.47852 -2.78201,4.966 -6.43457,8.01339 -12.85157,7.02539 -5.38,-0.828 -10.93215,-0.59875 -16.41015,-0.71875 -2.445,-0.054 -3.5241,-0.8462 -3.3711,-3.5332 0.236,-4.138 0.0625,-8.29992 0.0625,-14.29492 0.276,-4.632 0.78514,-11.0906 0.99414,-17.5586 0.097,-2.999 1.24994,-4.57703 4.21094,-5.08203 3.466,-0.591 6.91295,-1.0018 10.36133,-1.0293 z"
     style="fill:#235b4d;fill-opacity:1" /><path
     id="path8"
     d="m 155.96233,270.45283 c -10.328,-0.0231 -20.67251,2.816 -30.79101,8.4375 -19.551,10.862 -28.414879,28.6179 -28.921879,45.1289 -0.2,19.808 3.380516,31.89838 11.478519,40.85938 16.161,17.882 36.89986,21.35318 59.00586,15.86718 26.079,-6.472 42.48296,-29.12145 42.54296,-56.56445 0.04,-18.717 -5.725,-35.18823 -22.62499,-44.99023 -10.0505,-5.829 -20.36146,-8.71516 -30.68946,-8.73828 z m -3.625,13.75 c 16.03088,0.24106 25.79875,9.9325 29.00781,28.23437 0.979,5.589 1.49571,11.2143 1.34571,15.7793 0.137,11.528 -1.44191,21.62004 -5.25391,31.37304 -1.245,3.185 -3.29284,5.42855 -6.21484,6.81055 -15.722,7.439 -35.76274,5.14747 -44.05274,-15.39453 -7.898,-19.569 -6.04129,-39.13695 3.47071,-57.87695 3.767,-7.421 11.3022,-8.41666 18.4082,-8.84766 1.12431,-0.0682 2.22034,-0.0942 3.28906,-0.0781 z"
     style="fill:#235b4d;fill-opacity:1" /><path
     fill-rule="evenodd"
     clip-rule="evenodd"
     fill="#235b4d"
     d="m 659.67369,319.83906 c 0,-8.83 -0.239,-17.67 0.085,-26.488 0.214,-5.832 -2.374,-8.968 -7.706,-10.433 -1.925,-0.529 -3.766,-1.399 -5.709,-1.817 -2.394,-0.516 -2.751,-1.872 -2.409,-4.014 0.33,-2.064 0.954,-3.343 3.397,-3.33 13.332,0.071 26.664,0.076 39.996,0.01 2.71,-0.014 2.76,1.793 3.038,3.628 0.263,1.729 0.496,3.4 -1.946,3.705 -0.323,0.04 -0.635,0.198 -0.947,0.313 -11.303,4.132 -11.373,4.131 -11.561,16.544 -0.199,13.163 -0.126,26.33 -0.395,39.491 -0.265,13.023 -3.283,25.057 -13.33,34.357 -5.294,4.901 -11.555,7.866 -18.513,9.307 -14.877,3.08 -29.7,3.222 -43.169,-4.709 -14.085,-8.294 -18.091,-22.451 -18.883,-37.593 -0.703,-13.463 -0.873,-26.974 -0.7,-40.456 0.109,-8.545 -2.59,-14.546 -11.25,-16.889 -2.193,-0.594 -3.503,-1.416 -2.874,-4.134 0.57,-2.462 1.42,-3.617 4.248,-3.589 14.831,0.146 29.665,0.111 44.497,0.021 2.586,-0.016 3.798,0.626 4.312,3.436 0.565,3.094 -0.973,3.978 -3.277,4.344 -7.532,1.199 -10.509,5.071 -10.549,13.104 -0.084,16.478 -1.556,33.018 0.545,49.396 2.383,18.584 14.585,27.117 33.137,24.404 0.659,-0.097 1.313,-0.227 1.969,-0.345 12.76,-2.301 16.378,-6.034 17.567,-18.811 0.912,-9.789 1.438,-19.61 0.427,-29.452 z"
     id="path10" /><path
     id="path12"
     d="m 407.89983,272.38837 c -0.40866,-0.0137 -0.84419,0.0165 -1.30469,0.0527 -5.807,0.457 -11.60106,1.15153 -17.41406,1.39453 -4.023,0.168 -6.05628,1.82851 -7.36328,5.72851 -8.731,26.048 -19.61631,51.2523 -30.32031,76.5293 -3.128,7.388 -6.57799,14.12516 -15.20899,16.16016 -2.996,0.707 -2.02593,2.89101 -1.83593,4.79101 0.189,1.884 0.92995,3.02463 3.12695,3.01563 13.827,-0.054 27.65251,-0.0663 41.47851,0.0117 2.508,0.013 3.05249,-1.45058 3.39649,-3.39258 0.348,-1.97 0.30125,-3.38499 -2.21875,-4.08399 -4.157,-1.154 -8.14563,-2.89422 -12.26563,-4.19922 -2.309,-0.73199 -2.73106,-1.98567 -2.03906,-4.13867 1.425,-4.436 2.95052,-8.86058 3.97852,-13.39257 0.635,-2.794 1.84557,-3.68241 4.64257,-3.69141 8.66,-0.028 17.31761,-0.29416 25.97461,-0.53516 12.326,-0.344 12.345,-0.37704 16.25,11.12696 1.168,3.443 3.76486,7.41648 2.88086,10.27148 -0.991,3.203 -6.30603,2.79061 -9.58203,4.34961 -1.861,0.885 -3.62614,1.03644 -2.86914,4.02344 0.631,2.497 1.32439,3.72911 4.15039,3.66211 7.325,-0.173 14.65928,-0.0596 21.98828,-0.0606 7.498,0 15.00233,-0.21388 22.48633,0.0781 4.584,0.18 4.30552,-3.04628 4.22852,-5.61328 -0.065,-2.167 -2.74233,-2.2979 -4.36133,-2.6289 -7.154,-1.464 -10.94572,-5.95494 -13.01172,-12.71094 -1.55,-5.07 -3.92783,-9.87842 -5.79883,-14.85742 -8.711,-23.174 -18.91317,-45.78824 -26.20117,-69.49024 -0.5895,-1.91625 -1.56114,-2.35923 -2.78711,-2.40039 z m -16.30664,16.41016 c 6.608,15.631 11.58562,30.24048 16.76562,44.77148 0.53501,1.502 0.90257,2.96417 -1.64843,2.95117 -10.438,-0.05 -20.87817,-0.0215 -32.20117,-0.0215 5.355,-16.473 10.82298,-31.39517 17.08398,-47.70117 z"
     style="fill:#235b4d;fill-opacity:1" /><path
     fill-rule="evenodd"
     clip-rule="evenodd"
     fill="#235b4c"
     d="m 46.530691,273.84006 c 13.652,0 27.683458,0.13986 41.333458,0.0389 5.568,-0.042 8.261542,1.92114 7.243542,7.44514 -1.116,6.053 -2.587,12.044 -3.603,18.112 -0.528,3.153 -1.978,3.908 -5.027,3.796 -9.228,-0.339 -9.232,-0.207 -11.265,-9.375 -2.301,-10.379 -2.298,-10.468 -13.137,-10.869 -6.152,-0.228 -12.321,0.012 -18.475,-0.193 -3.215,-0.106 -4.392,1.233 -4.553,4.306 -0.627,11.983 -0.722,23.973 -0.715,35.968 0.001,2.659 1.238,2.899 3.415,2.763 9.137,-0.572 18.283,-1.002 27.425,-1.505 4.669,-0.257 5.773,0.913 5.019,5.442 -0.191,1.147 -0.595,2.278 -0.644,3.429 -0.128,3.036 -1.293,4.259 -4.622,4.051 -8.636,-0.54 -17.309,-0.506 -25.946,-1.038 -3.346,-0.206 -4.847,0.338 -4.663,4.102 0.31,6.316 0.544,12.621 1.152,18.929 0.6,6.231 3.318,10.204 9.553,11.616 2.262,0.512 4.421,1.554 6.697,1.908 2.592,0.403 3.243,1.52 2.848,4.04 -0.387,2.47 -1.409,3.299 -3.919,3.283 -16.829,-0.104 -33.659,-0.135 -50.487,-0.01 -2.98,0.022 -3.47,-1.447 -4.014,-3.823 -0.588,-2.568 0.652,-3.519 2.642,-3.741 8.85,-0.988 11.471,-6.18 11.475,-14.597 0.009,-20.32 0.522,-40.634 -0.264,-60.959 -0.308,-7.954 -3.424,-13.33 -11.202,-15.546 -2.391,-0.681 -2.953,-1.666 -2.536,-4.261 0.468,-2.913 1.731,-3.375 4.28,-3.357 13.996,0.095 27.993,0.045 41.989,0.045 z"
     id="path14"
     sodipodi:nodetypes="cccsscccccccsccccccccccscccccccc" /><path
     fill-rule="evenodd"
     clip-rule="evenodd"
     fill="#255b4d"
     d="m 502.65169,273.77506 c 14.482,0 28.965,-0.0314 43.446,-0.12236 5.416,-0.034 8.653,1.96036 8.268,7.47636 -0.477,6.805 0.17246,13.581 -0.39454,20.381 -0.156,1.874 -2.36446,2.773 -4.25246,2.665 -0.165,-0.01 -0.333,-0.009 -0.499,0.004 -10.722,0.835 -10.946,0.672 -13.469,-9.818 -2.653,-11.031 -2.653,-11.031 -13.824,-11.609 -7.144,-0.369 -7.216,-0.369 -7.138,7.001 0.23,21.647 -0.323,43.296 0.476,64.948 0.319,8.678 2.487,15.387 11.701,17.812 2.722,0.716 2.454,2.463 2.174,4.618 -0.316,2.422 -1.619,2.892 -3.736,2.888 -14.824,-0.023 -29.649,-0.062 -44.471,0.117 -2.977,0.035 -3.583,-1.52 -4.136,-3.786 -0.604,-2.479 0.775,-3.541 2.754,-3.786 9.813,-1.215 11.231,-7.521 11.414,-16.136 0.492,-23.152 0.072,-46.3 0.393,-69.445 0.051,-3.647 -1.316,-4.398 -4.672,-4.338 -13.345,0.238 -13.347,0.137 -16.759,12.81 -2.649,9.838 -2.638,9.641 -12.682,9.006 -3.578,-0.227 -4.959,-1.063 -4.774,-4.88 0.313,-6.479 0.325,-13.002 -0.036,-19.479 -0.27,-4.82 0.913,-6.628 6.249,-6.473 14.646,0.425 29.311,0.146 43.968,0.146 -10e-4,-0.347 0,0.346 0,0 z"
     id="path16"
     sodipodi:nodetypes="csccccsccccccccccccccccccc" /></g><g
   id="g57893"
   transform="matrix(2.1099592,0,0,2.1099592,-402.09964,-365.00001)"><path
     style="fill:url(#linearGradient56756);fill-opacity:1;stroke-width:18.4447"
     d="m 377.26368,331.77292 c -7.40531,0.0554 -14.50551,3.50161 -20.19062,8.3863 -2.96196,2.82441 -5.72622,5.89619 -8.11314,9.28927 -8.79431,11.75263 -17.80485,23.33429 -26.47347,35.18168 -4.70211,5.7057 -8.61292,12.14899 -14.01548,17.19123 -7.25041,6.40707 -16.78046,9.76227 -26.22095,9.49688 -10.01468,-0.39807 -19.88667,-4.833 -26.86812,-12.47222 -5.58169,-6.35021 -9.44234,-14.52062 -10.37561,-23.18344 -0.35852,-5.44977 -0.2307,-10.97487 1.28712,-16.23633 l -24.32166,-9.85324 c -2.52323,7.59243 -3.5095,15.73327 -3.27639,23.7785 0.59232,20.18796 10.48245,39.86444 26.00654,51.63598 8.77687,6.76721 19.11636,11.27793 29.88478,12.90813 17.60646,2.74858 36.2685,-2.69219 50.03416,-14.59647 l 17.35054,-20.3949 0.017,0.0113 c 14.2843,-19.29436 28.85358,-38.34398 43.17372,-57.60051 1.59718,-2.38843 3.57031,-4.43454 5.00607,-6.9367 -1.27436,-1.47855 -2.88727,-2.52191 -4.26919,-3.82987 -2.04596,-2.21782 -5.20587,-2.29388 -7.91586,-2.76776 -0.23949,-0.006 -0.47728,-0.009 -0.71619,-0.007 z"
     id="path52111" /><path
     style="fill:url(#linearGradient56748);fill-opacity:1;stroke-width:18.4447"
     d="m 362.62568,255.42431 c -2.03065,1.75857 -4.6236,2.99212 -6.26882,5.23452 -2.49361,3.86698 -3.42632,8.54733 -3.67771,13.15377 0.43079,8.43532 3.24763,16.70331 8.05758,23.4706 11.4683,15.60066 22.88348,31.27492 34.33393,46.91347 3.24862,4.26508 6.06362,9.02246 7.53524,14.33007 4.03821,12.81414 1.31037,27.7136 -6.89161,38.06362 -3.19449,3.60159 -6.55039,7.16528 -10.732,9.49684 -13.27478,8.10926 -30.83364,6.61691 -42.98327,-3.15175 l -17.34346,20.38796 c 10.15369,8.87425 23.04403,13.98628 36.13303,15.1604 18.9884,1.61126 38.33601,-6.2364 51.85056,-20.33956 5.67137,-6.48289 10.42918,-13.8945 13.53425,-22.12129 6.15374,-16.10667 6.29701,-34.84695 -0.31827,-50.82295 l -13.99735,-23.14193 v 0 0 c -15.92809,-22.43549 -33.12786,-44.32912 -49.23154,-66.63377 z"
     id="path52109" /><path
     style="fill:#000000;stroke-width:13.0161"
     d="m 375.42153,58.656578 c 0,0.008 0.013,0.0168 0.013,0.0244 v -0.0292 c 0,10e-4 -0.013,0.004 -0.013,0.005 z"
     id="path52107" /><path
     style="fill:url(#linearGradient56764);fill-opacity:1;stroke-width:18.4447"
     d="m 260.35367,224.19363 h -0.10912 v -0.0277 c -11.4384,-0.83379 -23.08795,1.44043 -33.46909,6.63917 -11.59414,6.06586 -21.60798,15.7112 -27.96138,27.65335 -6.44368,11.75264 -9.15581,25.66721 -7.97115,39.16378 1.57891,21.30636 13.82149,41.05798 31.14087,51.91969 v -0.003 l 24.33554,9.86359 v 0.004 c 11.01386,3.93995 22.2414,7.17918 33.3271,10.83578 14.23244,4.51145 28.37603,9.38581 42.64417,13.82147 1.13069,-3.20353 2.85482,-6.38807 2.45989,-9.9328 -0.48464,-6.29334 -3.8608,-11.96424 -8.16825,-16.19139 -4.45085,-4.37878 -9.92385,-7.52307 -15.72092,-9.32387 -11.16321,-3.58266 -22.32445,-7.05109 -33.4518,-10.72852 -2.90754,-1.02362 -6.30113,-1.4622 -9.04712,-2.94077 l -0.41165,-0.1315 v -0.003 c -8.4348,-3.09807 -17.66897,-4.54349 -24.98258,-10.32719 -8.14756,-5.95215 -13.80378,-15.46774 -15.63434,-25.72283 -1.74086,-10.65319 0.71944,-21.97174 6.65993,-30.80516 7.23509,-10.75149 19.48507,-17.13452 31.90182,-17.18778 0.81863,-0.003 1.63783,0.0205 2.45633,0.0727 z"
     id="path52330" /><path
     style="fill:url(#linearGradient52863);fill-opacity:1;stroke-width:18.4447"
     d="m 389.27231,219.81019 c -1.27195,0.068 -2.53811,0.36501 -3.79872,0.6262 v 0 l -25.3112,6.781 v 0.003 c -19.06023,6.86203 -37.92378,14.35091 -57.00201,21.15604 -6.17883,2.36456 -12.40499,5.14165 -18.51282,7.71513 v 0.097 c 1.70939,2.68614 1.63855,6.38594 4.11004,8.58351 4.98993,6.08482 12.93825,7.99942 20.24279,8.15104 4.59455,-0.24644 9.2095,-0.96846 13.51696,-2.7124 h -0.0212 c 13.38871,-4.87165 26.83425,-9.58954 40.11527,-14.82136 -0.0269,0.0228 -0.0567,0.0396 -0.0836,0.0624 l 0.0865,-0.0312 c 0,-0.006 0,-0.0251 0,-0.0312 5.67138,-2.06618 12.11222,-4.56877 17.85531,-6.4454 3.08933,-0.98095 6.29091,-1.52672 9.50722,-1.65027 0.53623,-0.0205 1.07244,-0.0307 1.6088,-0.0276 0.53637,0.003 1.073,0.0191 1.60879,0.0449 7.14627,0.3458 14.20637,2.7448 20.11822,7.03356 3.33791,2.35054 6.01332,5.53841 8.77716,8.55238 4.8638,6.7293 7.9163,15.04936 8.0957,23.56055 0.53847,10.53942 -3.53657,20.98495 -10.21293,28.71893 -2.3743,2.67736 -5.29756,4.69751 -7.99551,6.95744 l 13.88737,23.03121 c 15.07986,-9.82142 26.03504,-26.4565 29.31754,-44.85152 2.4049,-13.8567 0.82699,-28.47025 -4.82626,-41.24649 -4.30744,-9.44 -10.42803,-18.08566 -18.36076,-24.43586 -8.84815,-7.6392 -19.85153,-12.14927 -31.05087,-14.10172 -3.86292,-0.38386 -7.78736,-0.92728 -11.67294,-0.71961 z"
     id="path52610" /><path
     style="fill:url(#linearGradient52816);fill-opacity:1;stroke-width:18.4447"
     d="m 324.12613,172.9901 c -2.444,-0.0141 -4.89,0.12598 -7.32763,0.43246 -13.08362,1.19424 -25.59333,7.08964 -35.67987,15.86617 -2.51274,2.59696 -4.97191,5.23415 -7.44865,7.85005 -6.35937,7.75713 -10.55317,17.27461 -13.28188,27.05485 l -2.00996,26.79189 c -0.0185,27.98031 -0.0185,55.95884 -0.0185,83.93918 3.72094,-0.23246 8.14616,0.78812 11.52089,-1.4185 9.53005,-5.57298 14.30414,-17.36534 14.73493,-28.47328 v -48.9236 c 0.32281,-8.43535 -0.68714,-17.72284 1.37682,-26.00655 3.08694,-12.98474 13.10104,-23.56401 25.08985,-27.6395 3.92824,-1.46353 8.05884,-2.15658 12.19185,-2.14849 12.40428,0.0291 24.83352,6.38303 31.92607,17.25698 2.02072,2.98435 3.61166,6.25302 4.9369,9.6145 l 25.25254,-6.76716 v 0 c -2.33193,-7.03792 -5.41475,-14.00203 -9.73227,-19.92441 -11.7153,-16.61954 -30.92093,-27.02789 -50.48394,-27.49075 -0.34704,-0.009 -0.69422,-0.0128 -1.04139,-0.0141 z"
     id="path2-3" /><rect
     style="fill:#bf9c6f;fill-opacity:1;stroke:none;stroke-width:0.626997"
     id="rect48166-9-9-6"
     width="0.025096912"
     height="19.675976"
     x="-369.67154"
     y="349.49185"
     transform="matrix(-0.85611665,0.51678263,0.51678263,0.85611665,0,0)"
     inkscape:transform-center-x="-5.0830561"
     inkscape:transform-center-y="8.3612623" /></g></svg>
