<?xml version="1.0" encoding="UTF-8"?>
<svg id="Capa_1" data-name="Capa 1" xmlns="http://www.w3.org/2000/svg" xmlns:xlink="http://www.w3.org/1999/xlink" viewBox="0 0 1857.12 390.78">
  <defs>
    <style>
      .cls-1 {
        fill: url(#Degradado_sin_nombre_40-2);
      }

      .cls-2 {
        fill: url(#Degradado_sin_nombre_40-3);
      }

      .cls-3 {
        fill: url(#Degradado_sin_nombre_40-4);
      }

      .cls-4 {
        fill: url(#Degradado_sin_nombre_40-5);
      }

      .cls-5 {
        fill: #fff;
      }

      .cls-6 {
        fill: url(#Degradado_sin_nombre_40);
      }
    </style>
    <linearGradient id="Degradado_sin_nombre_40" data-name="Degradado sin nombre 40" x1="251.16" y1="180.67" x2="122.28" y2="87.04" gradientUnits="userSpaceOnUse">
      <stop offset="0" stop-color="#c49953"/>
      <stop offset="1" stop-color="#ddc9a3"/>
    </linearGradient>
    <linearGradient id="Degradado_sin_nombre_40-2" data-name="Degradado sin nombre 40" x1="238.93" y1="246.84" x2="288.16" y2="95.34" xlink:href="#Degradado_sin_nombre_40"/>
    <linearGradient id="Degradado_sin_nombre_40-3" data-name="Degradado sin nombre 40" x1="175.72" y1="254.5" x2="334.73" y2="254.5" xlink:href="#Degradado_sin_nombre_40"/>
    <linearGradient id="Degradado_sin_nombre_40-4" data-name="Degradado sin nombre 40" x1="145.45" y1="195.53" x2="194.65" y2="346.95" xlink:href="#Degradado_sin_nombre_40"/>
    <linearGradient id="Degradado_sin_nombre_40-5" data-name="Degradado sin nombre 40" x1="192.3" y1="149.75" x2="60.44" y2="245.55" xlink:href="#Degradado_sin_nombre_40"/>
  </defs>
  <g>
    <path class="cls-5" d="M474.73,267.44c.83-5.24,1.93-35.57,1.93-50.73v-47.97c0-16.54-.28-44.11-3.31-48.25-2.21-3.58-14.34-7.44-23.16-9.93l3.03-14.34h68.93c35.29,0,63.69-.55,86.57-2.21,2.21,2.76,5.79,7.72,7.17,10.2-1.93,13.23-6.07,35.02-7.99,47.15-5.51.28-17.37,0-23.16-1.1l-6.07-32.53c-8.82-1.38-21.78-2.21-33.08-2.21-7.72,0-15.16.28-21.78.55l-6.89,1.93c-.83,5.24-1.93,35.57-1.93,50.73v20.4l60.93-3.03,4.69,6.34c-1.1,4.96-2.48,13.51-3.58,18.75l-62.03-1.93v7.44c0,15.44,1.38,43.84,3.86,48.25,3.58,4.14,20.13,6.89,31.71,9.93l-3.03,14.34h-94.29l-3.03-14.34,24.54-7.44Z"/>
    <path class="cls-5" d="M627.02,198.52c0-63.69,45.77-106.97,101.46-106.97s92.09,36.94,92.09,95.39c0,62.59-42.73,106.97-98.7,106.97s-94.84-36.94-94.84-95.39ZM763.77,256.97c7.17-11.31,14.89-31.71,14.89-61.76,0-47.97-17.37-78.85-55.69-78.85-14.06,0-26.19,3.86-35.29,10.75-10.48,14.34-19.02,36.94-19.02,66.44,0,46.87,21.5,76.09,58.45,76.09,15.99,0,28.4-4.96,36.67-12.68Z"/>
    <path class="cls-5" d="M985.81,290.33l-24.26-34.46c-24.26-33.08-54.86-71.41-78.85-101.46.28,54.59,1.65,105.04,4.41,110.56,3.03,3.86,19.02,6.89,31.71,9.93l-3.03,14.34h-80.23l-3.03-14.34,24.54-7.44c1.1-9.1,1.93-33.91,1.93-74.16,0-44.94-.55-68.38-3.31-72.51-4.41-3.31-15.16-7.44-23.71-10.2l3.03-14.34c17.65,0,38.6-.55,55.14-.83,17.37,31.43,64.52,89.61,101.46,135.37-.55-57.9-2.21-105.04-4.96-110.28-2.48-3.58-18.47-7.17-28.95-9.93l3.03-14.34h79.95l3.03,14.34-24.81,7.72c-2.48,20.4-3.58,85.47-3.58,169.28l-29.5,2.76Z"/>
    <path class="cls-5" d="M1119.56,289.22h-80.51l-3.03-14.34,23.44-9.38c18.47-40.25,38.32-91.53,57.35-140.88l9.1-26.74c6.89-1.93,29.78-4.96,42.18-4.69,2.21,8.82,5.24,19.3,10.2,31.71,19.3,49.08,40.8,106.42,55.69,141.44l25.36,8.55-3.03,14.34h-86.57l-3.03-14.34,25.64-7.44c-4.41-12.13-9.1-25.92-14.61-41.35l-73.34,1.38c-4.69,13.23-8.82,26.19-12.68,38.32l31.15,9.1-3.31,14.34ZM1170.56,205.68c-8.82-24.54-19.02-51.83-30.05-79.4-9.93,25.64-19.57,52.66-28.67,78.58l58.72.83Z"/>
    <path class="cls-5" d="M1310.02,267.44c.83-5.24,1.93-35.57,1.93-50.73v-101.18h-3.58c-10.75,0-22.61.55-31.16,1.38l-7.99,36.12c-6.34.55-19.85,0-25.64-1.1-.83-17.65-.83-36.95,0-55.69h92.36c31.71,0,57.35-.83,78.03-2.21,1.66,2.76,5.51,7.72,6.89,10.2-.83,14.89-2.76,32.53-4.41,47.97-5.52.83-18.2.55-23.44-.28l-7.44-35.02c-9.1-1.1-21.78-1.38-33.36-1.38h-1.93v101.18c0,16.54.28,44.11,3.31,48.25,2.21,3.58,14.34,7.44,23.16,9.93l-3.03,14.34h-85.19l-3.03-14.34,24.54-7.44Z"/>
    <path class="cls-5" d="M1500.37,118.01c-.83,5.24-1.93,35.57-1.93,50.45v31.71c0,43.84,12.96,68.1,50.45,68.1,18.47,0,33.08-7.17,40.53-15.99,6.34-19.3,6.34-45.21,6.34-74.71,0-25.09-.28-53.49-2.21-57.9-3.03-2.76-17.37-6.62-26.74-9.1l3.03-14.34h77.47l3.03,14.34-25.92,7.72c-.83,18.75-1.38,44.11-1.38,90.71,0,56.8-32.26,85.19-82.16,85.19-55.42,0-81.61-31.43-81.61-94.84v-30.88c0-16.26,0-44.39-2.76-48.25-2.48-3.58-14.89-6.89-23.71-9.65l3.03-14.34h86.02l3.03,14.34-24.54,7.44Z"/>
    <path class="cls-5" d="M1687.56,267.44c.83-5.24,1.93-35.57,1.93-50.73v-47.97c0-16.54-.28-44.11-3.31-48.25-2.21-3.58-14.34-7.44-23.16-9.93l3.03-14.34h41.63c9.38,0,39.7-1.65,52.66-1.65,45.77,0,73.34,17.09,73.34,51.56,0,25.64-19.03,42.18-36.12,51.28,12.13,23.71,31.98,60.1,38.87,69.75l20.68,7.72-3.03,14.34c-15.71,0-30.05.55-50.18,1.1-6.62-15.16-26.19-55.42-39.15-80.51h-36.94v6.89c0,16.54.28,44.11,3.31,48.25,2.21,3.58,14.34,7.44,23.16,9.93l-3.03,14.34h-85.19l-3.03-14.34,24.54-7.44ZM1727.81,186.66l46.32,1.65c10.2-6.34,19.85-19.85,19.85-38.05,0-12.68-3.59-21.51-8.82-27.57-6.34-4.96-17.37-7.44-29.78-7.44-7.99,0-17.09,1.1-23.98,2.21l-1.66.55c-.83,5.24-1.93,35.57-1.93,50.73v17.92Z"/>
  </g>
  <g>
    <path class="cls-6" d="M100.26,236.33h0V99.48c0-46.72,32.17-88.15,77.95-97.46,52.12-10.59,101.48,21.49,114.6,70.56,0,0-38.07,10.18-38.07,10.18,0,0,0,0,0,0-8.01-29.97-38.66-49.32-70.57-41.69-26.44,6.33-44.5,30.88-44.5,58.07v97.78c0,21.76-17.64,39.41-39.41,39.41Z"/>
    <path class="cls-1" d="M139.73,119.43h0s130.16-42.29,130.16-42.29c44.43-14.44,93.78,3.36,116.77,44.02,26.18,46.3,10.92,103.15-31.7,130.79l-21.44-33.06c26.02-16.88,34.96-52.01,17.84-80-14.19-23.19-43.12-32.78-68.98-24.38l-93,30.22c-20.7,6.73-42.93-4.6-49.66-25.3Z"/>
    <path class="cls-2" d="M263.37,120.77h0s80.18,110.36,80.18,110.36c30.32,41.74,24.67,100.5-14.69,133.85-36.15,30.62-88.68,30.85-124.93,1.52-.05-.04-.05-.11-.02-.15l24.69-30.45s.1-.05.14-.01c23.19,18.73,57.51,17.24,79.05-5.1,19.86-20.59,20.99-52.93,4.18-76.07l-57.31-78.89c-12.79-17.61-8.89-42.25,8.72-55.04Z"/>
    <path class="cls-3" d="M300.04,238.57h0s-80.34,110.57-80.34,110.57c-28.41,39.11-81.18,53.19-124.29,31.32-45.66-23.16-65.14-76.46-47.4-122.6l36.78,14.14c-10.72,27.89,1.33,60.16,29.32,73.74,25.69,12.46,56.73,3.6,73.51-19.5l57.36-78.96c12.79-17.61,37.44-21.51,55.04-8.72Z"/>
    <path class="cls-4" d="M174.13,260.21l-73.53-23.89c-.11,0-.22.02-.33.02v-.12l-32.4-10.53c-8.54-2.77-15.71-8.79-19.75-16.81-25.75-51.15,10.16-95.01,52.15-93.39v-16c0-7.98.96-15.8,2.75-23.34-67.52-3.45-126.15,63.42-93.91,144.25,8.07,20.22,24.86,35.72,45.57,42.44l144.76,47.03c6.73-20.7-4.6-42.93-25.3-49.66Z"/>
  </g>
</svg>